<svg xmlns="http://www.w3.org/2000/svg" xmlns:xlink="http://www.w3.org/1999/xlink" fill="none" version="1.1" width="24" height="23" viewBox="0 0 24 23"><clipPath id="master_svg0_1_0815"><rect x="0" y="0" width="24" height="23" rx="0"/></clipPath><g clip-path="url(#master_svg0_1_0815)"><g><path d="M12,2.875C10.9,2.875,10,3.7375,10,4.79167C10,5.845829999999999,10.9,6.70833,12,6.70833C13.1,6.70833,14,5.845829999999999,14,4.79167C14,3.7375,13.1,2.875,12,2.875ZM12,16.2917C10.9,16.2917,10,17.1542,10,18.2083C10,19.2625,10.9,20.125,12,20.125C13.1,20.125,14,19.2625,14,18.2083C14,17.1542,13.1,16.2917,12,16.2917ZM12,9.58333C10.9,9.58333,10,10.44583,10,11.5C10,12.55417,10.9,13.4167,12,13.4167C13.1,13.4167,14,12.55417,14,11.5C14,10.44583,13.1,9.58333,12,9.58333Z" fill="#606266" fill-opacity="1"/></g></g></svg>