<svg xmlns="http://www.w3.org/2000/svg" xmlns:xlink="http://www.w3.org/1999/xlink" fill="none" version="1.1" width="13" height="13" viewBox="0 0 13 13"><clipPath id="master_svg0_1_0827"><rect x="0" y="0" width="13" height="13" rx="0"/></clipPath><g clip-path="url(#master_svg0_1_0827)"><g><path d="M8.66664298828125,1.625L11.91661298828125,1.625L11.91661298828125,4.875L10.83331298828125,4.875L10.83331298828125,2.70833L8.66664298828125,2.70833L8.66664298828125,1.625ZM1.08331298828125,1.625L4.33331298828125,1.625L4.33331298828125,2.70833L2.16664298828125,2.70833L2.16664298828125,4.875L1.08331298828125,4.875L1.08331298828125,1.625ZM10.83331298828125,10.29167L10.83331298828125,8.125L11.91661298828125,8.125L11.91661298828125,11.375L8.66664298828125,11.375L8.66664298828125,10.29167L10.83331298828125,10.29167ZM2.16664298828125,10.29167L4.33331298828125,10.29167L4.33331298828125,11.375L1.08331298828125,11.375L1.08331298828125,8.125L2.16664298828125,8.125L2.16664298828125,10.29167Z" fill="#909399" fill-opacity="1"/></g></g></svg>