<svg xmlns="http://www.w3.org/2000/svg" xmlns:xlink="http://www.w3.org/1999/xlink" fill="none" version="1.1" width="51" height="52" viewBox="0 0 51 52"><clipPath id="master_svg0_1_0612"><rect x="5.099999904632568" y="10.399999618530273" width="39.779998779296875" height="40.55999755859375" rx="19.889999389648438"/></clipPath><clipPath id="master_svg1_1_0753"><rect x="0" y="0" width="51" height="52" rx="0"/></clipPath><g style="mix-blend-mode:passthrough"><g><g clip-path="url(#master_svg0_1_0612)" style="mix-blend-mode:passthrough"><rect x="5.099999904632568" y="10.399999618530273" width="39.779998779296875" height="40.55999755859375" rx="19.889999389648438" fill="#1890FF" fill-opacity="1"/><g></g></g><g clip-path="url(#master_svg1_1_0753)"><g><path d="M42.3631060546875,29.370036279296876L30.8727460546875,49.495436279296875L27.2362060546875,47.37243627929688L38.7265060546875,27.246976279296874C39.3087060546875,26.227285479296874,40.594806054687496,25.875879279296875,41.598906054687504,26.462301279296874C42.6025060546875,27.046095279296875,42.9459060546875,28.352786279296875,42.3631060546875,29.370036279296876Z" fill="#F9CFCF" fill-opacity="1"/><path d="M30.8723485546875,49.90174077148437C30.8052185546875,49.90174077148437,30.7370785546875,49.88444077148438,30.6747285546875,49.847940771484375L27.0379895546875,47.724840771484374C26.8464882646875,47.61244077148437,26.7808764546875,47.36284077148437,26.8915634546875,47.16784077148438L38.3820685546875,27.042440771484376C39.0729685546875,25.832222771484375,40.6045685546875,25.413580771484376,41.7970685546875,26.109488771484376C42.3754685546875,26.447284771484377,42.7890685546875,26.993890771484374,42.9609685546875,27.648360771484374C43.132868554687505,28.302830771484373,43.0428685546875,28.986960771484377,42.7075685546875,29.574190771484375L31.2171985546875,49.699640771484376C31.1458085546875,49.824840771484375,31.014418554687502,49.90184077148437,30.8723485546875,49.90174077148437ZM27.7822715546875,47.223140771484374L30.7273185546875,48.942540771484374L42.0186685546875,29.165710771484374C42.2459685546875,28.771370771484374,42.3080685546875,28.300350771484375,42.1909685546875,27.858800771484376C42.0757685546875,27.416700771484376,41.7910685546875,27.040430771484374,41.4008685546875,26.814740771484374C40.588068554687496,26.340237771484375,39.5423685546875,26.625423771484375,39.070768554687504,27.451330771484376L27.7822715546875,47.223140771484374Z" fill="#3762CC" fill-opacity="1"/><path d="M37.17836865234375,38.815806152343754C37.06186865234375,38.07040615234375,36.86166865234375,37.34110615234375,36.58196865234375,36.64230615234375L32.639968652343754,22.27630615234375L17.28818865234375,22.27630615234375L13.34625165234375,36.64230615234375C13.06656065234375,37.34120615234375,12.86643165234375,38.07040615234375,12.74979065234375,38.815806152343754L12.69161865234375,39.260606152343755C12.64972435234375,39.63370615234375,12.62844062834375,40.008906152343755,12.62786865234375,40.38450615234375C12.62786865234375,45.90220615234375,17.04633865234375,50.37520615234375,22.49676865234375,50.37520615234375L27.43116865234375,50.37520615234375C32.88166865234375,50.37520615234375,37.300068652343754,45.90220615234375,37.300068652343754,40.38450615234375C37.300068652343754,40.004206152343755,37.27716865234375,39.62970615234375,37.23636865234375,39.260606152343755L37.17836865234375,38.815806152343754Z" fill="#A4C9FF" fill-opacity="1"/><path d="M27.431431152343748,50.781469775390626L22.49673115234375,50.781469775390626C16.83537115234375,50.781469775390626,12.22943115234375,46.117469775390624,12.22943115234375,40.38446977539063C12.22943115234375,40.00626977539062,12.25174405234375,39.61266977539063,12.29577055234375,39.214869775390625L12.35493915234375,38.762169775390625C12.47511815234375,37.99046977539062,12.68097215234375,37.235169775390624,12.96853315234375,36.510869775390624L16.904501152343748,22.167034775390626C16.95254115234375,21.991493775390627,17.109451152343752,21.870130920390626,17.28819115234375,21.870269775390625L32.640231152343745,21.870269775390625C32.81893115234375,21.870267791750624,32.975731152343755,21.991575775390626,33.02393115234375,22.167034775390626L36.95983115234375,36.510869775390624C37.24633115234375,37.23206977539063,37.45163115234375,37.98386977539063,37.572031152343754,38.75216977539063L37.57343115234375,38.762369775390624L37.63163115234375,39.206969775390625C37.676631152343745,39.61286977539062,37.69893115234375,40.00646977539063,37.69893115234375,40.38466977539062C37.698731152343754,46.117269775390625,33.09283115234375,50.781469775390626,27.431431152343748,50.781469775390626ZM17.59060115234375,22.682773775390626L13.72994115234375,36.75206977539062C13.72582115234375,36.766869775390624,13.720961152343751,36.78136977539062,13.71540115234375,36.79566977539062C13.44732115234375,37.465769775390626,13.25548115234375,38.164969775390624,13.14364615234375,38.87956977539062L13.086868152343751,39.31426977539063C13.04732315234375,39.669669775390624,13.02717115234375,40.02706977539063,13.02650515234375,40.38466977539062C13.02650515234375,45.669669775390624,17.27485115234375,49.969169775390625,22.49693115234375,49.969169775390625L27.431631152343748,49.969169775390625C32.65373115234375,49.969169775390625,36.90203115234375,45.669669775390624,36.90203115234375,40.38466977539062C36.90203115234375,40.036769775390624,36.88133115234375,39.673769775390625,36.84073115234375,39.30616977539063L36.78413115234375,38.87466977539063C36.67213115234375,38.161769775390624,36.48053115234375,37.464269775390626,36.21313115234375,36.79566977539062C36.20753115234375,36.78136977539062,36.202731152343745,36.766869775390624,36.19863115234375,36.75206977539062L32.33793115234375,22.682773775390626L17.59060115234375,22.682773775390626Z" fill="#3762CC" fill-opacity="1"/><path d="M38.15879853515625,12.519791552734375L27.96099853515625,6.559511552734375L36.68379853515625,1.730623552734375C37.23682853515625,1.424514552734375,37.91357853515625,1.819998552734375,37.92830853515625,2.458013552734375L38.15879853515625,12.519791552734375Z" fill="#A4C9FF" fill-opacity="1"/><path d="M30.535888671875,6.5897739746093755L36.076758671875,3.522383274609375C36.353278671875,3.369226974609375,36.691748671875,3.567070774609375,36.698918671875,3.885976974609375L36.845348671875,10.277303974609374L30.535888671875,6.5897739746093755Z" fill="#F9CFCF" fill-opacity="1"/><path d="M38.158761035156246,12.926041552734375C38.09046103515625,12.926041552734375,38.02186103515625,12.908141552734374,37.960561035156246,12.872241552734375L27.76291803515625,6.911931552734375C27.63758323515625,6.838711552734375,27.56093265515625,6.702061552734375,27.56258632655625,6.554791552734375C27.56423999515625,6.407521552734375,27.64394113515625,6.272691552734375,27.77088703515625,6.202421552734375L36.49388103515625,1.373733552734375C36.87446103515625,1.161288652734375,37.33640103515625,1.167763852734375,37.71106103515625,1.390795552734375C38.08416103515625,1.608682552734375,38.31776103515625,2.010178552734375,38.32646103515625,2.4484715527343752L38.55696103515625,12.510241552734374C38.56266103515625,12.738441552734376,38.38266103515625,12.926441552734374,38.158761035156246,12.926041552734375ZM28.778541035156252,6.569061552734375L37.74396103515625,11.809041552734374L37.53001103515625,2.467561552734375C37.52484103515625,2.243721552734375,37.37562103515625,2.131796552734375,37.31147103515625,2.094015552734375C37.17711103515625,2.012731552734375,37.01049103515625,2.010410552734375,36.87399103515625,2.087921552734375L28.778541035156252,6.569061552734375Z" fill="#3762CC" fill-opacity="1"/><path d="M11.7696533203125,12.519791552734375L21.9674533203125,6.559511552734375L13.2446733203125,1.730623552734375C12.6916373203125,1.424514552734375,12.0148913203125,1.819998552734375,12.0001493203125,2.458013552734375L11.7696533203125,12.519791552734375Z" fill="#A4C9FF" fill-opacity="1"/><path d="M13.851471742187499,3.522383274609375L19.3923457421875,6.5897739746093755L13.0828857421875,10.277303974609374L13.2293117421875,3.885976974609375C13.2366827421875,3.567070974609375,13.5751557421875,3.369226974609375,13.851471742187499,3.522383274609375Z" fill="#F9CFCF" fill-opacity="1"/><path d="M11.76964285546875,12.9260279296875C11.54581485546875,12.9263279296875,11.36580028546875,12.7384279296875,11.37140428546875,12.5102279296875L11.60190085546875,2.4484679296875003C11.61060385546875,2.0101769296875,11.84420685546875,1.6086809296875,12.21728685546875,1.3907939296875C12.59191685546875,1.1674807296875,13.05400685546875,1.1610033296875,13.43451685546875,1.3737309296875L22.15747685546875,6.2024179296875C22.28447685546875,6.2726879296875,22.36417685546875,6.4075179296875,22.365776855468752,6.5547879296875C22.36747685546875,6.7020679296875,22.29077685546875,6.8387179296875,22.16547685546875,6.9119379296875L11.96786485546875,12.8722279296875C11.90754185546875,12.9075279296875,11.83919585546875,12.9261279296875,11.76964285546875,12.9260279296875ZM12.84303685546875,2.0310439296875C12.76359685546875,2.0316279296874997,12.68567685546875,2.0532569296875,12.61691685546875,2.0938089296875C12.55296685546875,2.1315909296875,12.40375685546875,2.2435079296875,12.39837685546875,2.4673579296875L12.18441485546875,11.8088279296875L21.149856855468748,6.5688579296875L13.05440685546875,2.0877149296875C12.989776855468751,2.0509029296875,12.91705685546875,2.0314049296875,12.84303685546875,2.0310439296875Z" fill="#3762CC" fill-opacity="1"/><path d="M27.77592568359375,26.6402751953125L22.15252568359375,26.6402751953125C16.15686568359375,26.6402751953125,11.29632568359375,21.6843751953125,11.29632568359375,15.5711751953125C11.29632568359375,9.4579151953125,16.15686568359375,4.5020751953125,22.15252568359375,4.5020751953125L27.77592568359375,4.5020751953125C33.771625683593754,4.5020751953125,38.63212568359375,9.4579151953125,38.63212568359375,15.5711751953125C38.63212568359375,21.6843751953125,33.771625683593754,26.6402751953125,27.77592568359375,26.6402751953125Z" fill="#A4C9FF" fill-opacity="1"/><path d="M32.517254296874995,21.561098056640624C31.546454296874998,17.950558056640624,28.466554296875,15.464508056640625,24.964094296875,15.464508056640625C21.461634296875,15.464508056640625,18.381714296875,17.950558056640624,17.410916296875,21.561098056640624L16.483154296875,25.011588056640626C18.188464296875,26.079308056640627,20.151134296875,26.643208056640624,22.152324296875,26.640208056640624L27.775654296875,26.640208056640624C29.776854296875,26.643208056640624,31.739554296875,26.079408056640624,33.444854296875,25.011588056640626L32.517254296874995,21.561098056640624Z" fill="#E0EBFC" fill-opacity="1"/><path d="M19.81606322265625,16.528894287109374L19.80849322265625,16.528894287109374C19.22987222265625,16.528894287109374,18.76080322265625,16.050634287109375,18.76080322265625,15.460664287109374L18.76080322265625,14.191124287109375C18.76080127715625,13.601159287109375,19.22987022265625,13.122894287109375,19.80849322265625,13.122894287109375L19.81606322265625,13.122894287109375C20.39469322265625,13.122894287109375,20.86375322265625,13.601159287109375,20.86375322265625,14.191124287109375L20.86375322265625,15.460664287109374C20.86397322265625,16.050564287109374,20.39484322265625,16.528894287109374,19.81606322265625,16.528894287109374ZM30.330003222656252,16.528894287109374L30.322503222656252,16.528894287109374C29.74380322265625,16.528894287109374,29.27480322265625,16.050634287109375,29.27480322265625,15.460664287109374L29.27480322265625,14.191124287109375C29.27480322265625,13.601158287109374,29.74380322265625,13.122894287109375,30.322503222656252,13.122894287109375L30.330003222656252,13.122894287109375C30.90870322265625,13.122893295288375,31.37770322265625,13.601158287109374,31.37770322265625,14.191124287109375L31.37770322265625,15.460664287109374C31.37750322265625,16.050694287109376,30.90850322265625,16.528894287109374,30.330003222656252,16.528894287109374ZM26.43610322265625,20.447584287109375C25.809363222656252,20.447584287109375,25.22824322265625,20.197334287109374,24.85909322265625,19.781334287109374C24.489933222656248,20.197334287109374,23.90861322265625,20.447584287109375,23.28187322265625,20.447584287109375C22.19254322265625,20.447584287109375,21.30642322265625,19.692364287109374,21.30642322265625,18.764084287109377C21.30642322265625,18.539714287109376,21.48480322265625,18.357834287109377,21.70485322265625,18.357834287109377C21.92491322265625,18.357834287109377,22.10329322265625,18.539714287109376,22.10329322265625,18.764084287109377C22.10329322265625,19.236144287109376,22.642983222656248,19.635084287109375,23.28187322265625,19.635084287109375C23.73469322265625,19.635084287109375,24.15425322265625,19.435814287109373,24.35048322265625,19.127264287109377C24.46204322265625,18.951384287109377,24.65365322265625,18.845394287109375,24.85909322265625,18.845944287109376L24.85949322265625,18.845944287109376C25.06568322265625,18.845944287109376,25.25553322265625,18.951364287109374,25.36769322265625,19.127474287109376C25.56372322265625,19.436024287109376,25.98328322265625,19.635284287109375,26.43610322265625,19.635284287109375C27.07500322265625,19.635284287109375,27.61468322265625,19.236554287109374,27.61468322265625,18.764284287109376C27.61468322265625,18.539914287109376,27.79306322265625,18.358034287109376,28.01311322265625,18.358034287109376C28.233173222656248,18.358034287109376,28.411553222656252,18.539914287109376,28.411553222656252,18.764284287109376C28.411553222656252,19.692364287109374,27.52543322265625,20.447584287109375,26.43610322265625,20.447584287109375Z" fill="#3762CC" fill-opacity="1"/><path d="M25.55897701171875,16.6688416796875L26.15383701171875,16.0667836796875C26.27717701171875,15.9416676796875,26.35872701171875,15.780125679687501,26.38692701171875,15.6050816796875C25.92354701171875,15.5136749796875,25.44820701171875,15.4647216796875,24.96430701171875,15.4647216796875C24.48040601171875,15.4647216796875,24.00506901171875,15.5138782796875,23.54168701171875,15.6050816796875C23.56971961171875,15.7801816796875,23.65129801171875,15.9417736796875,23.77477301171875,16.0667836796875L24.36944101171875,16.6688416796875C24.69890701171875,17.0013316796875,25.22950701171875,17.0013316796875,25.55897701171875,16.6688416796875Z" fill="#F9A7A7" fill-opacity="1"/><path d="M27.77584404296875,27.04649794921875L22.15254404296875,27.04649794921875C15.94664404296875,27.04649794921875,10.89764404296875,21.89869794921875,10.89764404296875,15.57089794921875C10.89764404296875,9.24319794921875,15.94664404296875,4.09539794921875,22.15254404296875,4.09539794921875L27.77584404296875,4.09539794921875C33.98174404296875,4.09539794921875,39.03074404296875,9.24319794921875,39.03074404296875,15.57089794921875C39.03074404296875,21.89869794921875,33.98174404296875,27.04649794921875,27.77584404296875,27.04649794921875ZM22.15254404296875,4.90810094921875C16.38592404296875,4.90810094921875,11.69451904296875,9.69148794921875,11.69451904296875,15.57109794921875C11.69451904296875,21.45079794921875,16.38592404296875,26.23419794921875,22.15254404296875,26.23419794921875L27.77584404296875,26.23419794921875C33.542444042968754,26.23419794921875,38.233844042968755,21.45079794921875,38.233844042968755,15.57109794921875C38.233844042968755,9.69148794921875,33.542444042968754,4.90809994921875,27.77584404296875,4.90809994921875L22.15254404296875,4.90810094921875Z" fill="#3762CC" fill-opacity="1"/><path d="M41.5759151171875,18.6381421875L35.2676541171875,18.6381421875C35.0479071171875,18.6377021875,34.8699951171875,18.4559521875,34.8699951171875,18.2318921875C34.8699951171875,18.0078321875,35.0479071171875,17.8260821875,35.2676541171875,17.8256421875L41.5759151171875,17.8256421875C41.7956651171875,17.8260821875,41.9735751171875,18.0078321875,41.9735751171875,18.2318921875C41.9735751171875,18.4559521875,41.7956651171875,18.6377021875,41.5759151171875,18.6381421875ZM35.2702461171875,16.828912187500002C35.0894741171875,16.8292621875,34.9311187171875,16.7054921875,34.8845085171875,16.5274021875C34.8378983171875,16.3493221875,34.9147143171875,16.1615521875,35.0716261171875,16.0700321875L40.5348051171875,12.8769076875C40.7257251171875,12.7655975875,40.9689851171875,12.8330165875,41.0783751171875,13.0275521875C41.1877651171875,13.2220891875,41.1219151171875,13.4701991875,40.9312451171875,13.5819541875L35.4680711171875,16.7750821875C35.4078511171875,16.8102721875,35.3396611171875,16.828832187499998,35.2702461171875,16.828912187500002ZM40.7326251171875,23.640742187500003C40.6631951171875,23.640742187500003,40.5949751171875,23.6221421875,40.5347951171875,23.5868421875L35.0716181171875,20.3937521875C34.8806720171875,20.2821321875,34.8146263171875,20.0338121875,34.9241032171875,19.8391221875C35.0335761171875,19.6444221875,35.2771171171875,19.5770821875,35.4680641171875,19.6887021875L40.9312451171875,22.8818421875C41.0881451171875,22.973342187500002,41.1649651171875,23.161142187499998,41.1183551171875,23.3392421875C41.0717451171875,23.517242187500003,40.9133851171875,23.6410421875,40.7326251171875,23.640742187500003Z" fill="#3762CC" fill-opacity="1"/><path d="M14.660692949218749,18.6381142578125L8.35243294921875,18.6381142578125C8.13268594921875,18.6376742578125,7.95477294921875,18.455924257812498,7.95477294921875,18.2318642578125C7.95477294921875,18.007804257812502,8.13268594921875,17.8260542578125,8.35243294921875,17.8256142578125L14.660692949218749,17.8256142578125C14.88044294921875,17.8260542578125,15.058352949218751,18.007804257812502,15.058352949218751,18.2318642578125C15.058352949218751,18.455924257812498,14.88044294921875,18.6376742578125,14.660692949218749,18.6381142578125ZM9.19572294921875,23.6406642578125C9.01499294921875,23.6409642578125,8.85672094921875,23.5171642578125,8.810163949218751,23.339064257812502C8.763606949218751,23.161064257812498,8.84042694921875,22.973264257812502,8.99730294921875,22.8817642578125L14.46067294921875,19.6886742578125C14.65165294921875,19.5769042578125,14.895342949218751,19.644274257812498,15.00478294921875,19.839094257812498C15.11422294921875,20.0339242578125,15.04791294921875,20.2823242578125,14.85672294921875,20.3937242578125L9.39335294921875,23.5868642578125C9.33099294921875,23.6233642578125,9.26286294921875,23.6406642578125,9.19572294921875,23.6406642578125ZM14.65830294921875,16.8288842578125C14.591162949218749,16.8288842578125,14.52303294921875,16.8116142578125,14.46067294921875,16.7750542578125L8.99730294921875,13.5819282578125C8.80669094921875,13.4702592578125,8.74080094921875,13.2222812578125,8.85005894921875,13.0277782578125C8.95931294921875,12.8332745378125,9.20243294921875,12.7657493578125,9.39335294921875,12.8768809578125L14.85672294921875,16.0700042578125C15.01360294921875,16.1615142578125,15.09042294921875,16.3492242578125,15.043862949218749,16.5272842578125C14.997312949218749,16.7053442578125,14.839032949218751,16.8291442578125,14.65830294921875,16.8288842578125Z" fill="#3762CC" fill-opacity="1"/><path d="M24.96410640625,17.323730478515625C24.63616640625,17.324460478515626,24.32131640625,17.192620478515625,24.08854440625,16.957090478515624L23.49387640625,16.355030478515626C23.31113040625,16.170230478515624,23.19030110625,15.931293478515625,23.14863052625,15.672324478515625C23.11280620625,15.454868478515625,23.25365040625,15.247977478515624,23.46598540625,15.206152478515625C24.45553640625,15.009935978515625,25.472886406249998,15.009935978515625,26.46243640625,15.206152478515625C26.67467640625,15.247977478515624,26.81549640625,15.454737478515625,26.77978640625,15.672121478515624C26.73802640625,15.931059478515625,26.61721640625,16.169960478515627,26.43454640625,16.354820478515624L25.83987640625,16.956890478515625C25.60708640625,17.192540478515625,25.29214640625,17.324460478515626,24.96410640625,17.323730478515625ZM24.19054640625,15.915059478515625L24.65033640625,16.380620478515624C24.82428640625,16.556070478515625,25.10432640625,16.556070478515625,25.27827640625,16.380620478515624L25.73807640625,15.915059478515625C25.22383640625,15.856357478515624,24.70478640625,15.856357478515624,24.19054640625,15.915059478515625Z" fill="#3762CC" fill-opacity="1"/><path d="M29.14694091796875,50.78143627929688L26.64654091796875,50.78143627929688C26.51764091796875,50.78143627929688,26.388340917968748,50.76923627929688,26.26263091796875,50.74533627929688C25.69665091796875,50.63763627929687,25.28605091796875,50.120036279296876,25.28605091796875,49.514736279296876L25.28605091796875,39.40643627929688C25.28605091796875,39.290656279296876,25.23984091796875,39.18381627929688,25.155570917968753,39.105816279296874C25.07210091796875,39.02779627929687,24.95979091796875,38.990066279296876,24.84718091796875,39.00222627929688C24.64637091796875,39.02172627929687,24.48918091796875,39.21448627929688,24.48918091796875,39.441376279296875L24.48918091796875,49.523936279296876C24.48918091796875,50.213736279296874,23.95268091796875,50.777936279296874,23.29307091796875,50.78143627929688L20.781720917968748,50.78143627929688C19.78124091796875,50.78143627929688,18.92102091796875,50.057936279296875,18.73654091796875,49.061136279296875L18.40823091796875,47.28793627929687C15.82256891796875,36.91185627929688,16.41444791796875,33.813795279296876,16.44094361796875,33.68704427929688C16.48694491796875,33.468427279296876,16.69755991796875,33.32880647929687,16.91219491796875,33.374644469296875C17.12682991796875,33.420478479296875,17.26479291796875,33.634541279296876,17.22088491796875,33.853607279296874C17.21291591796875,33.895247279296875,16.66566191796875,37.00001627929687,19.18379091796875,47.10003627929687C19.18578091796875,47.10813627929687,19.18777091796875,47.11643627929688,19.18897091796875,47.124736279296876L19.51967091796875,48.910636279296874C19.63322091796875,49.524136279296876,20.163940917968752,49.96893627929688,20.781720917968748,49.96893627929688L23.28211091796875,49.96893627929688C23.50763091796875,49.96773627929687,23.69250091796875,49.76393627929687,23.69250091796875,49.523936279296876L23.69250091796875,39.44136627929687C23.69250091796875,38.800306279296876,24.16664091796875,38.25207627929687,24.771870917968748,38.193166279296875C25.107820917968752,38.16060627929687,25.44171091796875,38.273616279296874,25.69186091796875,38.50455627929688C25.94081091796875,38.73575627929687,26.08283091796875,39.06309627929687,26.083130917968752,39.40643627929688L26.083130917968752,49.514736279296876C26.083130917968752,49.72563627929688,26.223180917968747,49.91123627929687,26.409240917968752,49.946636279296875C26.486940917968752,49.961436279296876,26.56684091796875,49.96893627929688,26.64674091796875,49.96893627929688L29.14714091796875,49.96893627929688C29.764840917968748,49.96893627929688,30.29564091796875,49.523936279296876,30.40894091796875,48.910636279296874L30.73984091796875,47.124736279296876C30.74124091796875,47.11643627929688,30.74324091796875,47.10813627929687,30.74504091796875,47.10003627929687C33.26774091796875,36.980926279296874,32.71374091796875,33.88346827929688,32.70794091796875,33.853404279296875C32.66494091796875,33.634105279296875,32.80344091796875,33.420470579296875,33.01814091796875,33.374842829296874C33.23234091796875,33.329230979296874,33.44234091796875,33.468824279296875,33.48794091796875,33.68704427929688C33.51444091796875,33.81399727929688,34.10624091796875,36.91205627929688,31.52064091796875,47.28793627929687L31.19214091796875,49.061336279296874C31.00744091796875,50.057936279296875,30.14744091796875,50.78143627929688,29.14694091796875,50.78143627929688Z" fill="#3762CC" fill-opacity="1"/></g></g></g></g></svg>